<svg width="73" height="27" viewBox="0 0 73 27" fill="none" xmlns="http://www.w3.org/2000/svg">
<path d="M0.455078 1.5957H5.55176V11.5234L14.8818 1.5957H21.4727L11.5117 11.5898L22.0537 26H15.5957L8.04199 15.1924L5.55176 17.7324V26H0.455078V1.5957ZM40.2324 9.61426C40.166 9.38184 40.083 9.11621 39.9834 8.81738C39.8838 8.50749 39.7454 8.19759 39.5684 7.8877C39.4023 7.5778 39.1865 7.27344 38.9209 6.97461C38.6663 6.67578 38.3454 6.41016 37.958 6.17773C37.5706 5.94531 37.1058 5.75716 36.5635 5.61328C36.0212 5.4694 35.3848 5.39746 34.6543 5.39746C34.3444 5.39746 33.9792 5.4362 33.5586 5.51367C33.138 5.59115 32.7064 5.74056 32.2637 5.96191C31.821 6.1722 31.3838 6.47103 30.9521 6.8584C30.5205 7.24577 30.1331 7.75488 29.79 8.38574C29.458 9.00553 29.1868 9.75814 28.9766 10.6436C28.7663 11.529 28.6611 12.5804 28.6611 13.7979C28.6611 15.1149 28.7995 16.2936 29.0762 17.334C29.3529 18.3743 29.7513 19.2542 30.2715 19.9736C30.7917 20.693 31.417 21.2464 32.1475 21.6338C32.889 22.0101 33.7246 22.1982 34.6543 22.1982C35.7279 22.1982 36.6022 22.0322 37.2773 21.7002C37.9525 21.3682 38.4893 20.9642 38.8877 20.4883C39.2972 20.0124 39.6016 19.5143 39.8008 18.9941C40 18.474 40.1549 18.0202 40.2656 17.6328H45.3291C45.0524 19.1602 44.5931 20.4883 43.9512 21.6172C43.3092 22.735 42.529 23.6647 41.6104 24.4062C40.6917 25.1478 39.6569 25.7012 38.5059 26.0664C37.3659 26.4316 36.1484 26.6143 34.8535 26.6143C33.0384 26.6143 31.4281 26.3154 30.0225 25.7178C28.6279 25.109 27.4492 24.2458 26.4863 23.1279C25.5345 22.0101 24.8096 20.6654 24.3115 19.0938C23.8135 17.5111 23.5645 15.7458 23.5645 13.7979C23.5645 12.2926 23.7083 10.9313 23.9961 9.71387C24.2839 8.49642 24.6823 7.41732 25.1914 6.47656C25.7116 5.52474 26.3203 4.70573 27.0176 4.01953C27.7148 3.32227 28.473 2.75228 29.292 2.30957C30.1221 1.85579 30.9909 1.52376 31.8984 1.31348C32.806 1.09212 33.7246 0.981445 34.6543 0.981445C35.9824 0.981445 37.1611 1.11979 38.1904 1.39648C39.2197 1.67318 40.1217 2.04395 40.8965 2.50879C41.6712 2.97363 42.3298 3.50488 42.8721 4.10254C43.4255 4.7002 43.8737 5.31999 44.2168 5.96191C44.571 6.59277 44.8311 7.22917 44.9971 7.87109C45.1742 8.50195 45.2848 9.08301 45.3291 9.61426H40.2324ZM49.0146 1.5957H56.4688L60.752 20.5879H60.8184L65.1016 1.5957H72.5889V26H67.8906V5.59668H67.8242L63.1924 26H58.2285L53.7793 5.59668H53.7129V26H49.0146V1.5957Z" fill="black"/>
</svg>
