<svg width="222" height="226" viewBox="0 0 222 226" fill="none" xmlns="http://www.w3.org/2000/svg">
<path d="M58.5528 195.56L62.1814 197.386C77.3028 206.516 94.2371 210.777 111.172 210.777C164.396 210.777 207.943 166.952 207.943 113.389C207.943 87.8244 197.66 62.8684 179.516 44.6078C161.372 26.3471 137.178 16 111.172 16C57.9485 16 14.401 59.8248 15.0062 113.998C15.0062 132.257 20.4496 149.91 29.5215 165.126L31.9405 168.779L22.2643 204.691L58.5528 195.56Z" fill="#00E676"/>
<path d="M189.912 32.8686C169.348 11.5653 140.922 0 111.891 0C50.2003 0 0.6052 50.5202 1.20953 111.997C1.20953 131.474 6.65286 150.344 15.7256 167.387L0 225.211L58.6671 209.994C74.9971 219.125 93.1409 223.386 111.286 223.386C172.373 223.386 221.968 172.865 221.968 111.389C221.968 81.5633 210.475 53.5638 189.912 32.8686ZM111.891 204.517C95.5608 204.517 79.2309 200.257 65.3199 191.735L61.6913 189.909L26.6123 199.039L35.6842 164.345L33.2652 160.692C6.65286 117.476 19.3542 60.2591 62.9009 33.4768C106.447 6.69536 162.695 19.4779 189.308 63.3027C215.919 107.128 203.218 163.735 159.672 190.517C145.76 199.647 128.826 204.517 111.891 204.517ZM165.115 136.954L158.462 133.911C158.462 133.911 148.785 129.65 142.737 126.606C142.132 126.606 141.527 125.997 140.922 125.997C139.107 125.997 137.898 126.606 136.688 127.215C136.688 127.215 136.084 127.824 127.616 137.562C127.011 138.78 125.802 139.389 124.592 139.389H123.987C123.383 139.389 122.173 138.78 121.568 138.172L118.544 136.954C111.891 133.911 105.843 130.258 101.004 125.389C99.7946 124.172 97.9799 122.954 96.7704 121.737C92.5366 117.476 88.3028 112.606 85.2794 107.128L84.6742 105.911C84.0698 105.302 84.0698 104.694 83.4646 103.477C83.4646 102.259 83.4646 101.042 84.0698 100.433C84.0698 100.433 86.4889 97.3894 88.3028 95.564C89.5132 94.3458 90.1175 92.5204 91.327 91.3031C92.5366 89.4768 93.1418 87.0423 92.5366 85.216C91.9322 82.1724 84.6742 65.7381 82.8603 62.0863C81.6499 60.26 80.4412 59.6518 78.6265 59.0427H71.9737C70.7633 59.0427 69.5546 59.6518 68.3442 59.6518L67.739 60.26C66.5295 60.8691 65.3199 62.0863 64.1104 62.6945C62.9009 63.9126 62.2957 65.129 61.0861 66.3472C56.8523 71.8253 54.4333 78.5206 54.4333 85.216C54.4333 90.085 55.6428 94.9549 57.4575 99.2158L58.0627 101.042C63.5061 112.606 70.7633 122.954 80.4412 132.084L82.8603 134.519C84.6742 136.345 86.4889 137.562 87.6984 139.388C100.4 150.345 114.915 158.258 131.245 162.518C133.06 163.127 135.479 163.127 137.294 163.736H143.341C146.366 163.736 149.994 162.518 152.414 161.301C154.228 160.084 155.437 160.084 156.647 158.867L157.857 157.649C159.067 156.431 160.276 155.823 161.486 154.606C162.695 153.389 163.905 152.171 164.51 150.953C165.72 148.519 166.324 145.475 166.929 142.432V138.172C166.929 138.172 166.324 137.562 165.115 136.954Z" fill="white"/>
</svg>
